<svg width="195" height="195" viewBox="0 0 195 195" fill="none" xmlns="http://www.w3.org/2000/svg">
<g clip-path="url(#clip0_1_48)">
<rect width="195" height="195" fill="white"/>
<circle cx="97.5" cy="97.5" r="90" stroke="black" stroke-width="15"/>
<path fill-rule="evenodd" clip-rule="evenodd" d="M67.8776 113.508L74.9692 130.638C78.138 138.292 86.9118 141.928 94.5661 138.76C102.22 135.591 105.857 126.817 102.688 119.163L76.9698 57.0402L67.8776 113.508Z" fill="black"/>
<line x1="57.3837" y1="54.2233" x2="45.2233" y2="128.616" stroke="black" stroke-width="30" stroke-linecap="round"/>
<line x1="15" y1="-15" x2="90.3803" y2="-15" transform="matrix(0.161321 0.986902 0.986902 -0.161321 150 37)" stroke="black" stroke-width="30" stroke-linecap="round"/>
<path d="M106.771 160.195C105.791 163.446 101.926 164.796 99.1351 162.862L69.3265 142.203C65.968 139.875 66.6682 134.72 70.5258 133.373L110.798 119.306C114.655 117.959 118.413 121.556 117.234 125.469L106.771 160.195Z" fill="black"/>
<path d="M106.771 160.195C105.791 163.446 101.926 164.796 99.1351 162.862L69.3265 142.203C65.968 139.875 66.6682 134.72 70.5258 133.373L110.798 119.306C114.655 117.959 118.413 121.556 117.234 125.469L106.771 160.195Z" stroke="black"/>
<path fill-rule="evenodd" clip-rule="evenodd" d="M141.847 42.2624C134.193 39.0936 125.419 42.7298 122.251 50.3841L100.938 101.865L106.351 114.94C106.508 115.319 106.651 115.7 106.779 116.083L116.873 112.558C122 110.767 126.993 115.548 125.427 120.748L124.99 122.196L149.969 61.8593C153.138 54.205 149.502 45.4312 141.847 42.2624Z" fill="black"/>
</g>
<defs>
<clipPath id="clip0_1_48">
<rect width="195" height="195" fill="white"/>
</clipPath>
</defs>
</svg>
